# xmcd
# 
# Track frame offsets:
#     187
#     20340
#     34657
#     49207
#     63030
#     76727
#     92387
#     104307
#     118567
#     130905
#     144807
#     158112
#     173080
#     187747
#     200845
#     213287
#     223575
#     237462
#     249305
#     264500
#     278932
# 
# Disc length: 3872
# 
# Revision: 1
# Processed by: cddbd v1.5.2PL0 Copyright (c) Steve Scherf et al.
# Submitted via: fre:ac v1.0.17
# 
DISCID=180f1e15
DTITLE=Fats Waller - Fats Waller Disk Two
DYEAR=0
DGENRE=Jazz
TTITLE0=Blue, Turnig Grey Over You
TTITLE1=Keepin' Out Of Mischief Now
TTITLE2=Stardust
TTITLE3=Two Sleepy People
TTITLE4=Yacht Club Swing
TTITLE5=Good For Nothin' But Love
TTITLE6=Step Up And Shake My Hand
TTITLE7=Squeeze Me
TTITLE8=Suitcase Susie
TTITLE9=Your Feet's Too Big
TTITLE10=I Can't Give You Anything But Love,Baby
TTITLE11=Dry Bones
TTITLE12=Fats Waller's Original E Flat Blues
TTITLE13=Everybody Loves My Baby
TTITLE14=All That Meat And No Potatoes
TTITLE15=Carolina Shout
TTITLE16=Chant Of The Groove
TTITLE17=Buck Junpin'
TTITLE18=The Jitterbug Waltz
TTITLE19=By The Light Of The Silvery Moon
TTITLE20=Swing Out To Victory
EXTD=
EXTT0=
EXTT1=
EXTT2=
EXTT3=
EXTT4=
EXTT5=
EXTT6=
EXTT7=
EXTT8=
EXTT9=
EXTT10=
EXTT11=
EXTT12=
EXTT13=
EXTT14=
EXTT15=
EXTT16=
EXTT17=
EXTT18=
EXTT19=
EXTT20=
PLAYORDER=
